v 0 2 0
v 0 0 0
v 1 0 0
v 0.923889 0 0.38269
v 0.923889 0 -0.38269
v 0.707092 0 0.707092
v 0.707092 0 -0.707092
v 0.38269 0 0.923889
v 0.38269 0 -0.923889
v 0 0 1
v 0 0 -1
v -0.38269 0 0.923889
v -0.38269 0 -0.923889
v -0.707092 0 0.707092
v -0.707092 0 -0.707092
v -0.923889 0 0.38269
v -0.923889 0 -0.38269
v -1 0 0
vn 0 -1 0
vn 0 1 0
vn 0.894433 0.447201 0
vn 0.826349 0.447202 0.342283
vn 0.826349 0.447202 -0.342283
vn 0.632456 0.447212 0.632456
vn 0.632456 0.447212 -0.632456
vn 0.342283 0.447202 0.826349
vn 0.342283 0.447202 -0.826349
vn 0 0.447201 0.894433
vn 0 0.447201 -0.894433
vn -0.342283 0.447202 0.826349
vn -0.342283 0.447202 -0.826349
vn -0.632456 0.447212 0.632456
vn -0.632456 0.447212 -0.632456
vn -0.826349 0.447202 0.342283
vn -0.826349 0.447202 -0.342283
vn -0.894433 0.447201 0
vt 0.5 0
vt 0.5 -0.5
vt 0 -0.5
vt 0.961945 -0.308655
vt 0.961945 -0.691345
vt 0.9375 0
vt 0.875 0
vt 0.853546 -0.146454
vt 0.853546 -0.853546
vt 0.8125 0
vt 0.75 0
vt 0.691345 -0.038055
vt 0.691345 -0.961945
vt 0.6875 0
vt 0.625 0
vt 0.5625 0
vt 0.4375 0
vt 0.375 0
vt 0.3125 0
vt 0.308655 -0.038055
vt 0.308655 -0.961945
vt 0.25 0
vt 0.1875 0
vt 0.146454 -0.146454
vt 0.146454 -0.853546
vt 0.125 0
vt 0.0625 0
vt 0.038055 -0.308655
vt 0.038055 -0.691345
vt 0 0
f 7/9/1 5/5/1 2/2/1
f 9/13/1 7/9/1 2/2/1
f 11/1/1 9/13/1 2/2/1
f 13/21/1 11/1/1 2/2/1
f 15/25/1 13/21/1 2/2/1
f 17/29/1 15/25/1 2/2/1
f 18/3/1 17/29/1 2/2/1
f 16/28/1 18/3/1 2/2/1
f 14/24/1 16/28/1 2/2/1
f 12/20/1 14/24/1 2/2/1
f 10/1/1 12/20/1 2/2/1
f 8/12/1 10/1/1 2/2/1
f 6/8/1 8/12/1 2/2/1
f 4/4/1 6/8/1 2/2/1
f 3/3/1 4/4/1 2/2/1
f 5/5/1 3/3/1 2/2/1
f 5/30/5 7/27/7 1/1/2
f 7/27/7 9/26/9 1/1/2
f 9/26/9 11/23/11 1/1/2
f 11/23/11 13/22/13 1/1/2
f 13/22/13 15/19/15 1/1/2
f 15/19/15 17/18/17 1/1/2
f 17/18/17 18/17/18 1/1/2
f 18/17/18 16/1/16 1/1/2
f 16/1/16 14/16/14 1/1/2
f 14/16/14 12/15/12 1/1/2
f 12/15/12 10/14/10 1/1/2
f 10/14/10 8/11/8 1/1/2
f 8/11/8 6/10/6 1/1/2
f 6/10/6 4/7/4 1/1/2
f 4/7/4 3/6/3 1/1/2
f 3/6/3 5/30/5 1/1/2
