v 0.866026 0.999999 -0.499999
v 0.866026 0.618034 0.499999
v 0.535233 1.618033 0.309017
v 0.535233 0 -0.309017
v 0 1.618033 -0.618034
v 0 0.999999 1
v 0 0.618034 -1
v 0 0 0.618034
v -0.535233 1.618033 0.309017
v -0.535233 0 -0.309017
v -0.866026 0.999999 -0.499999
v -0.866026 0.618034 0.499999
vn 0.934172 0.333333 0.127322
vn 0.934172 -0.333333 -0.127322
vn 0.57735 0.745356 -0.333333
vn 0.57735 0.333333 0.745356
vn 0.57735 -0.333333 -0.745356
vn 0.57735 -0.745356 0.333333
vn 0.356822 0.333333 -0.872678
vn 0.356822 -0.333333 0.872678
vn 0 1 0
vn 0 0.745356 0.666667
vn 0 -0.745356 -0.666667
vn 0 -1 0
vn -0.356822 0.333333 -0.872678
vn -0.356822 -0.333333 0.872678
vn -0.57735 0.745356 -0.333333
vn -0.57735 0.333333 0.745356
vn -0.57735 -0.333333 -0.745356
vn -0.57735 -0.745356 0.333333
vn -0.934172 0.333333 0.127322
vn -0.934172 -0.333333 -0.127322
vt 0.837619 0.880415
vt 0.837619 0.619585
vt 0.76772 0.416667
vt 0.76772 0.083333
vt 0.73228 0.25
vt 0.608173 0.854892
vt 0.608173 0.645108
vt 0.540638 0.445451
vt 0.540638 0.054549
vt 0.5 0.75
vt 0.5 0.25
vt 0.459362 0.945451
vt 0.459362 0.554549
vt 0.391827 0.354892
vt 0.391827 0.145108
vt 0.26772 0.75
vt 0.23228 0.916667
vt 0.23228 0.583333
vt 0.162381 0.380415
vt 0.162381 0.119585
f 4/11/12 8/11/12 10/11/12
f 4/14/6 2/14/6 8/14/6
f 10/5/11 7/5/11 4/5/11
f 10/4/17 11/4/17 7/4/17
f 10/9/20 12/9/20 11/9/20
f 3/10/9 5/10/9 9/10/9
f 3/7/3 1/7/3 5/7/3
f 3/13/1 2/13/1 1/13/1
f 9/16/10 6/16/10 3/16/10
f 9/17/16 12/17/16 6/17/16
f 7/1/13 11/1/13 5/1/13
f 7/3/5 1/3/5 4/3/5
f 5/6/15 11/6/15 9/6/15
f 5/2/7 1/2/7 7/2/7
f 8/15/18 12/15/18 10/15/18
f 8/19/8 2/19/8 6/19/8
f 6/20/14 12/20/14 8/20/14
f 6/18/4 2/18/4 3/18/4
f 11/12/19 12/12/19 9/12/19
f 1/8/2 2/8/2 4/8/2
